<?xml version="1.0" encoding="utf-8"?>
<!-- Generator: Adobe Illustrator 23.0.6, SVG Export Plug-In . SVG Version: 6.00 Build 0)  -->
<svg version="1.1" id="Layer_1" xmlns="http://www.w3.org/2000/svg" xmlns:xlink="http://www.w3.org/1999/xlink" x="0px" y="0px"
	 viewBox="0 0 1462.7 1905.86" style="enable-background:new 0 0 1462.7 1905.86;" xml:space="preserve">
<style type="text/css">
	.st0{fill:#FF0000;}
</style>
<g>
	<path class="st0" d="M1121.37,161.12c79.48,2.51,143.13,56.74,197.92,108.68c6.36-9.87,11.15-21.74,5.3-33.16
		c-18.45-37.12-49.6-66.32-82.04-91.35c-49.44-36.45-103.23-66.72-158.23-93.97c-22.96,1.73-45.93-1.17-67.5-9.2
		c-14.88-7.52-31.38-13.15-48.15-8.86c0.72,3.18,2.17,9.47,2.9,12.65C1022.27,83.2,1072.21,121.71,1121.37,161.12z"/>
	<path class="st0" d="M1359.25,378.99c-59.36-51.44-138.95-69.56-214.69-80.76c-12.87-1.17-25.75-2.06-38.62-3.23
		c-63.32-59.92-131.65-116.54-211.35-153.44c-28.87-12.93-59.64-20.12-90.13-27.92c-47.71-3.4-95.36,2.45-140.95,16.78l-3.9,2.51
		c-7.91,2.62-15.77,5.41-23.63,8.14c-8.31,5.69-16.55,11.42-24.75,17.28c0.22,5.24,0.56,15.72,0.72,21.01
		c33.61,2.84,63.15-14.27,94.86-21.29c66.83-9.53,134.83,8.25,194.57,37.79c48.88,27.14,87.45,70.12,117.32,116.76
		c31.72,59.25,59.52,121.28,100.32,175.18c8.03,9.36,16.55,22.24,30.6,20.73c44.76,0.11,93.3,5.46,129.47,34.33
		c45.87,37.62,57.35,101.22,56.74,157.45c-3.35,31.27-4.69,63.54-15.16,93.41c-19.17,33.94-52.28,63.54-52.73,105.23
		c38.24-8.92,67.5-38.79,89.4-69.78c36.84-70.28,69.28-144.86,79.04-224.28C1445.31,523.85,1423.79,433.22,1359.25,378.99z"/>
	<path class="st0" d="M318.61,394.37c-5.74-14.6-15.55-28.76-14.38-45.15c1.34-36.51,12.76-75.97,44.59-97.54
		c3.69-0.81,52.26,62.9,66.99,60.19c16.98-3.12,20.68-28.81,22.96-46.54c2.06-15.72-1.47-37.4-7.02-46.04
		c-38.23-31.71-92.35-15.49-136.38-7.02c-4.18-10.64-3.85-24.63-13.88-31.88c-29.87-2.79-58.46,8.47-87.28,14.32
		c-43.92,11.76-89.4,18.17-131.81,34.83c-14.88,19.95-32.38,39.24-38.01,64.21c64.43,22.69,132.82,28.82,199.37,42.36
		c10.98,18.11,28.87,30.88,38.51,49.83c7.02,12.87,13.93,25.8,20.73,38.79c-1.67,1.45,21.4,37.12,37.73,41.52
		C332.16,443.42,330.1,416.72,318.61,394.37z"/>
	<path class="st0" d="M1301.18,637.43c-9.36-23.52-12.76-55.24-39.62-65.6c-49.61-22.57-104.45-33.33-158.57-37.17
		c-2.06,20.18,4.68,39.63,6.52,59.58c4.35,27.48,5.46,55.35,9.08,82.93c1,22.8,16.33,41.02,26.53,60.47
		c14.94,23.35,18.45,51.28,25.08,77.64c7.36,35.17,8.64,72.85-2.79,107.29c-6.63,22.18-27.25,40.96-19.84,65.82
		c30.32-6.47,46.76-35.73,66.49-56.85c28.87-30.1,41.92-70.34,57.63-108.01C1293.54,764.57,1314.33,700.86,1301.18,637.43z"/>
	<path class="st0" d="M1032.36,1029.98c35.28-2.01,75.35-14.1,93.47-47.21c27.26-46.37,27.14-102.11,25.58-154.28
		c-0.33-20.01-5.85-39.57-16.38-56.57c-6.8-2.62-13.54-5.29-20.23-7.97c-17.44,33.61-33.83,67.83-49.21,102.44
		c-13.66,29.09-40.52,50.72-47.94,82.99c-49.21-16.55-105.78-0.17-146.47,29.99c5.07,25.47,20.29,50.89,45.81,59.8
		c22.02,6.63,45.65,4.01,67.88-0.17c7.69-21.63,14.94-43.42,24.03-64.49c1.17-0.06,3.51-0.22,4.68-0.34
		C1016.54,992.86,1005.55,1026.25,1032.36,1029.98z"/>
	<path class="st0" d="M538.43,853.41c9.98,20.34,20.73,40.3,33.22,59.19c9.92,19.17,13.38,40.85,19.9,61.31
		c5.63,16.89,11.15,33.83,16.55,50.83c7.91,19.56,13.82,40.63,27.09,57.46c6.63,8.25,18.84,12.21,21.01,23.58
		c-0.5,15.5-5.46,30.49-9.14,45.48c-0.5,10.09-0.89,20.18-1.22,30.32c-3.23,1.95-6.47,3.96-9.64,5.97
		c-16.94-59.25-35.95-117.94-52.28-177.41c-10.59-38.4-30.04-75.3-60.59-101.55c-23.3-22.24-53.84-33.83-83.55-44.59
		c-10.42-21.68-13.65-57.91-44.64-57.63c-11.93,24.86-5.52,53,1.34,78.36c20.4,59.69,39.68,119.94,57.52,180.47
		c11.87,67.94,26.64,135.49,34.61,204.05c12.21,46.87,28.03,92.74,42.36,139c1.62,5.63,3.18,11.32,4.68,17
		c25.58,63.6,79.81,109.52,133.27,149.6c2.17,28.98-8.19,59.69,4.29,87.11c19.62,0.67,41.19,2.84,58.36-8.75
		c14.43-9.92,26.81-28.71,19.34-46.6c-12.26-36.39-25.14-72.62-37.73-108.91c-2.29-7.52-4.68-14.99-6.97-22.46
		c12.98-5.02,27.65-10.87,33.44-24.63c17.5-38.46,5.74-81.38-0.73-121.06c-19.17-16.16-42.86-5.18-64.26-1.11
		c-2.34-12.15-5.07-24.25-7.41-36.4c6.24-4.07,12.37-8.36,18.39-12.76c17.11-10.92,29.93-28.71,31.43-49.38
		c2.45-35.72-2.56-72.23-13.93-106.12c-6.97-16.05-18-42.19-40.07-29.37c-1.56-1.39-4.68-4.18-6.24-5.57
		c4.35-31.88,5.07-64.77,18-94.75c3.23,1.62,9.75,4.8,13.04,6.41c20.57,76.8,37.12,154.78,56.46,231.97
		c10.98,60.14,14.66,121.28,22.96,181.81c3.01,24.13,1.95,50.38,15.66,71.56c7.08,11.65,19.79,17.84,30.93,24.92
		c3.73-0.06,11.26-0.17,14.99-0.22c16.78-9.98,31.26-26.42,29.15-47.32c4.13-38.68-19.23-71.23-30.88-106.29
		c-1.89-5.4-3.73-10.81-5.52-16.22c-22.07-59.75-37.9-121.5-50.66-183.87c-7.97-33.38-14.82-66.99-22.13-100.49
		c-10.37-45.43-20.12-91.02-30.65-136.39c-5.68-25.47-21.62-50-46.65-59.8c-13.82-2.34-29.99,2.34-41.36-8.19
		c-28.15-24.52-36.4-63.37-43.25-98.37c8.14,28.31,24.19,53.79,46.98,72.57c18.45,14.6,37.68,30.88,61.76,34.45
		c-0.39-18.56-4.85-36.67-7.86-54.84c-10.64-54.34-22.29-108.41-35.11-162.25c-5.85-48.55-20.62-95.53-26.08-144.08
		c-2.84-12.93-5.57-25.86-9.08-38.62c-7.02-2.51-13.93-5.35-20.62-8.53c-2.62,1.84-7.86,5.46-10.48,7.25
		c-4.07,13.99-8.42,27.81-13.49,41.41c-28.48,23.47-57.13,48.04-77.14,79.37c-12.54,19.01-9.48,44.37,3.73,62.2
		c14.1,23.96,42.36,31.66,67.11,39.63c0.45,11.2,0.89,22.46,1.34,33.72c-2.95-3.18-5.91-6.35-8.92-9.47
		c-28.26-15.72-56.96-32.66-78.31-57.41c-11.15-18.84-16.39-42.02-13.43-63.76c46.87-48.71,96.37-98.71,120.72-163.19
		c8.14-25.08,15.55-52.89,6.86-78.87c-22.24-61.81,1.67-132.04-29.2-191.51c18.11-7.08,36.45-13.43,54.9-19.51
		c9.48-3.62,18.95-7.13,28.48-10.64c18.56-8.64,37.62-16.11,55.85-25.53c20.01-1.12,40.18-1.28,60.14,1.22
		c16.27,5.35,33.16,8.64,49.66,13.21c7.52,1.34,15.04,2.73,22.52,4.24c7.35,2.28,14.77,4.4,22.13,6.74
		c5.57,1.62,11.2,3.18,16.89,4.68c5.74,1.62,11.26,3.73,16.66,6.3c9.42,3.4,18.9,6.74,28.04,10.81c7.81,3.12,15.67,6.24,23.46,9.36
		c60.81,30.6,116.04,72.85,158.62,126.13c40.58,11.43,83.49,11.65,124.57,21.01c15.6,2.17,32.6,0.84,46.54,9.59
		c23.8,14.77,45.87,32.16,69.72,46.87c6.69,4.74,15,4.91,22.91,5.91c-0.67-12.48-1.06-26.03-9.98-35.89
		c-40.35-53.84-100.16-87.84-156.84-121.89c-22.13-15.27-50.72-12.82-73.57-26.42c-44.7-24.08-87.28-52.67-124.29-87.51
		c-51-40.41-117.44-52.95-180.98-55.29c-101.33-0.84-199.7,26.31-297.35,50.05c-42.64,12.04-84.22,27.48-125.69,43.14
		c-23.96,9.64-48.99,19.23-67.66,37.79c9.14,4.96,19.01,10.7,29.71,6.69c26.81-7.41,56.18-9.75,81.65,3.57
		c34.44,27.92,63.65,72.34,51.66,118.44c-15.49,56.63-56.35,101.77-97.09,142.29c-24.08,25.92-60.64,34.67-85.22,59.86
		c-1.06,17.61,6.41,34.39,9.75,51.5c9.09,41.58,20.35,82.66,31.05,123.84c21.35,52.67,39.57,108.35,77.47,151.99
		C459.01,850.07,499.53,863.94,538.43,853.41z M536.43,1248.58c-6.63-30.1-15.16-59.75-20.68-90.07
		c31.88,0.22,53.01,27.42,66.38,53.11c19.06,38.35,35.23,78.59,43.53,120.72C602.92,1298.52,579.51,1257.99,536.43,1248.58z
		 M674.09,1505.74c-2.62,0.05-7.91,0.11-10.53,0.11c-13.71-10.86-27.31-22.57-36.56-37.62c3.96-11.48,11.04-21.51,17.06-31.93
		c0.89-4.4,2.68-13.26,3.57-17.67C656.7,1447.55,665.01,1476.76,674.09,1505.74z"/>
	<path class="st0" d="M1001.15,1613.03c-18.84-10.59-41.96-7.58-60.58-18.34c-31.82-22.57-51.45-57.18-72.02-89.29
		c-14.66-5.63-30.43,9.19-45.87,10.42c-17.84,0.39-35.73-0.45-53.56-0.11c0,14.1-0.06,28.26,0.67,42.36
		c16.67,24.13,7.25,55.63-1.5,81.04c-5.52,18.84-27.92,18.45-43.25,24.03c-10.59,6.69-20.9,13.71-30.71,21.46
		c4.18,6.63,5.3,17.56,14.83,18.61c35.73,4.13,71.96,1.29,107.74,5.57c-23.13,12.38-50.94,8.31-73.9,19.95
		c-36.01,4.68-70.95-7.58-103-22.63c5.35-33.89,5.35-68.28,7.47-102.44c-20.9-27.65-61.09-35.06-71.84-70.68
		c-8.08,0.22-16.16,0.61-24.19,1.12c-3.12,23.02-1.23,46.26,1.28,69.22c4.35,21.79,12.09,44.48,5.35,66.55
		c-3.18,14.83-13.43,26.58-21.68,38.85c-52.28,42.42-117.99,66.27-166.87,113.37c9.64,18.84,20.12,38.74,38.23,50.78
		c9.53,2.67,19.4,0.22,28.98-0.5c45.65-14.5,91.57-30.38,139.51-35.06c28.82-5.19,57.24-12.26,85.61-19.34
		c100.77-25.36,202.71-45.65,304.2-67.66c60.59-17.11,122.4-30.38,181.81-51.56c7.75-33.22-17.34-58.02-34.27-82.99
		C1076.62,1621.34,1036.38,1630.25,1001.15,1613.03z"/>
</g>
</svg>
